<?xml version="1.0" encoding="utf-8"?>
<!-- Generator: Adobe Illustrator 16.0.0, SVG Export Plug-In . SVG Version: 6.00 Build 0)  -->
<!DOCTYPE svg PUBLIC "-//W3C//DTD SVG 1.1//EN" "http://www.w3.org/Graphics/SVG/1.1/DTD/svg11.dtd">
<svg version="1.1" id="Layer_1" xmlns="http://www.w3.org/2000/svg" xmlns:xlink="http://www.w3.org/1999/xlink" x="0px" y="0px"
	 width="612px" height="792px" viewBox="0 0 612 792" enable-background="new 0 0 612 792" xml:space="preserve">
<g>
	<circle fill="none" stroke="#000000" stroke-width="5" stroke-miterlimit="10" cx="271.979" cy="192.863" r="54.3"/>
	<ellipse fill="none" stroke="#000000" stroke-width="5" stroke-miterlimit="10" cx="271.979" cy="104.638" rx="54.3" ry="16.526"/>
	<path fill="none" stroke="#000000" stroke-width="5" stroke-miterlimit="10" d="M353.42,509.102
		c0,12.36-10.02,22.381-22.381,22.381H212.917c-12.36,0-22.381-10.021-22.381-22.381c0,0,43.23-239.353,55.591-239.353h52.223
		C310.71,269.749,353.42,509.102,353.42,509.102z"/>
	<path fill="none" stroke="#000000" stroke-width="5" stroke-miterlimit="10" d="M232.45,306.245
		c-34.427,10.667-53.42-32.045-62.481-57.821c-13.306-37.85-59.835-39.725-72.868-37.728c-26.827,4.115-39.949,16.644-47.773,42.095
		c-11.894,38.686-15.636,93.86-5.22,133.006c1.866,7.015,5.871,27.475,14.495,28.205c10.939,0.926,10.85-23.68,11.832-32.281
		c2.023,9.368,2.812,29.879,16.231,32.186c12.358,2.125,10.134-36.959,9.252-46.048c0.448,6.104,4.578,45.603,12.727,46.136
		c8.914,0.587,9.299-35.63,9.299-35.63s15.281,48.562,24.365,24.536c7.422-19.632-10.317-59.523,6.549-74.985
		c15.362-14.083,29.858,3.799,40.841,12.168c9.267,7.061,20.569,12.396,32.337,11.287"/>
	<path fill="none" stroke="#000000" stroke-width="5" stroke-miterlimit="10" d="M312.274,306.432
		c33.319,10.325,51.702-31.013,60.472-55.959c12.877-36.632,57.909-38.448,70.522-36.514c25.965,3.981,38.665,16.107,46.236,40.74
		c11.511,37.441,15.135,90.84,5.053,128.727c-1.806,6.789-5.682,26.591-14.028,27.297c-10.587,0.896-10.5-22.919-11.452-31.243
		c-1.957,9.067-2.721,28.918-15.708,31.151c-11.959,2.057-9.808-35.769-8.955-44.567c-0.434,5.908-4.431,44.134-12.316,44.653
		c-8.627,0.567-9.001-34.484-9.001-34.484s-14.789,47-23.581,23.746c-7.184-19,9.984-57.608-6.338-72.572
		c-14.868-13.63-28.898,3.677-39.527,11.776c-8.969,6.834-19.907,11.997-31.297,10.924"/>
</g>
</svg>
