<?xml version="1.0" encoding="utf-8"?>
<!-- Generator: Adobe Illustrator 16.0.0, SVG Export Plug-In . SVG Version: 6.00 Build 0)  -->
<!DOCTYPE svg PUBLIC "-//W3C//DTD SVG 1.1//EN" "http://www.w3.org/Graphics/SVG/1.1/DTD/svg11.dtd">
<svg version="1.1" id="Layer_1" xmlns="http://www.w3.org/2000/svg" xmlns:xlink="http://www.w3.org/1999/xlink" x="0px" y="0px"
	 width="612px" height="792px" viewBox="0 0 612 792" enable-background="new 0 0 612 792" xml:space="preserve">
<g>
	<circle fill="none" stroke="#000000" stroke-width="5" stroke-miterlimit="10" cx="260.591" cy="197.895" r="50.238"/>
	<path fill="none" stroke="#000000" stroke-width="5" stroke-miterlimit="10" d="M233.174,155.806
		c-22.456,11.733-21.692-4.575-29.176-24.247c-1.145,25.594-14.883,39.146,9.518,46.478"/>
	<path fill="none" stroke="#000000" stroke-width="5" stroke-miterlimit="10" d="M289.873,157.531
		c17.566,11.733,16.969-4.575,22.822-24.247c0.895,25.594,11.643,39.146-7.445,46.478"/>
	
		<line fill="none" stroke="#000000" stroke-width="5" stroke-miterlimit="10" x1="122.682" y1="217.635" x2="122.682" y2="508.103"/>
	<polygon fill="none" stroke="#000000" stroke-width="5" stroke-miterlimit="10" points="110.332,217.635 122.579,196.183 
		135.032,217.515 	"/>
	<polygon fill="none" stroke="#000000" stroke-width="5" stroke-miterlimit="10" points="69.002,232.218 81.249,210.766 
		93.702,232.098 	"/>
	<polygon fill="none" stroke="#000000" stroke-width="5" stroke-miterlimit="10" points="153.389,232.218 165.635,210.766 
		178.088,232.098 	"/>
	<path fill="none" stroke="#000000" stroke-width="5" stroke-miterlimit="10" d="M81.774,231.972
		c0,34.607,18.729,62.612,41.874,62.612"/>
	<path fill="none" stroke="#000000" stroke-width="5" stroke-miterlimit="10" d="M165.522,231.972
		c0,34.607-18.729,62.612-41.874,62.612"/>
	<path fill="none" stroke="#000000" stroke-width="5" stroke-miterlimit="10" d="M335.941,286.654
		c0-11.435-9.271-20.707-20.707-20.707H205.948c-11.436,0-20.707,9.272-20.707,20.707c0,0,39.996,221.449,51.432,221.449h48.316
		C296.427,508.103,335.941,286.654,335.941,286.654z"/>
	<path fill="none" stroke="#000000" stroke-width="5" stroke-miterlimit="10" d="M305.218,442.155
		c0,29.774,33.035,53.868,73.859,53.868"/>
	<polygon fill="none" stroke="#000000" stroke-width="5" stroke-miterlimit="10" points="380.757,483.677 401.88,496.481 
		380.228,508.37 	"/>
</g>
</svg>
