<?xml version="1.0" encoding="utf-8"?>
<!-- Generator: Adobe Illustrator 16.0.0, SVG Export Plug-In . SVG Version: 6.00 Build 0)  -->
<!DOCTYPE svg PUBLIC "-//W3C//DTD SVG 1.1//EN" "http://www.w3.org/Graphics/SVG/1.1/DTD/svg11.dtd">
<svg version="1.1" id="Layer_1" xmlns="http://www.w3.org/2000/svg" xmlns:xlink="http://www.w3.org/1999/xlink" x="0px" y="0px"
	 width="1200px" height="800px" viewBox="0 0 1200 800" enable-background="new 0 0 1200 800" xml:space="preserve">
<g>
	
		<rect x="23.82" y="18.872" fill="none" stroke="#000000" stroke-width="8" stroke-miterlimit="10" width="1157.692" height="757.693"/>
	
		<rect x="49.213" y="44.083" fill="#FFFFFF" stroke="#000000" stroke-width="7.5652" stroke-miterlimit="10" width="1107.287" height="708.417"/>
	<g>
		<polygon fill="none" stroke="#000000" stroke-width="6" stroke-miterlimit="10" points="518.122,365.615 602.823,261.618 
			689.878,365.615 		"/>
		<polygon fill="none" stroke="#000000" stroke-width="6" stroke-miterlimit="10" points="470.051,365.615 601.835,203.809 
			737.281,365.615 		"/>
		
			<line fill="none" stroke="#000000" stroke-width="6" stroke-miterlimit="10" x1="554.752" y1="261.618" x2="650.227" y2="261.618"/>
		
			<line fill="none" stroke="#000000" stroke-width="6" stroke-miterlimit="10" x1="512.402" y1="313.616" x2="693.754" y2="313.616"/>
		<polygon fill="none" stroke="#000000" stroke-width="6" stroke-miterlimit="10" points="557.899,365.615 601.878,311.617 
			647.08,365.615 		"/>
		<line fill="none" stroke="#000000" stroke-width="6" stroke-miterlimit="10" x1="601.9" y1="203.809" x2="601.9" y2="368.391"/>
		<path fill="none" stroke="#000000" stroke-width="6" stroke-miterlimit="10" d="M602.418,227.134"/>
	</g>
	<g>
		<text transform="matrix(1 0 0 1 125.8457 518.3408)" font-family="'DolceVitaHeavy-Bold'" font-size="137.953">#FM</text>
		<text transform="matrix(1 0 0 1 376.2227 518.3408)" fill="#FFFFFF" font-family="'DolceVitaHeavy-Bold'" font-size="137.953">BLESSED</text>
		
			<text transform="matrix(1 0 0 1 376.2227 518.3408)" fill="none" stroke="#000000" stroke-width="5" stroke-miterlimit="10" font-family="'DolceVitaHeavy-Bold'" font-size="137.953">BLESSED</text>
		<text transform="matrix(1 0 0 1 862.5605 518.3408)" font-family="'DolceVitaHeavy-Bold'" font-size="137.953">LIFE</text>
		<text transform="matrix(1 0 0 1 125.8457 518.3408)" fill="#231F20" font-family="'DolceVitaHeavy-Bold'" font-size="137.953">#FM</text>
	</g>
</g>
</svg>
